# xmcd
#
# Track frame offsets:
#	150
#	13800
#	28875
#	46950
#	62550
#	82125
#	102900
#	121950
#	150375
#	160800
#	174900
#	193575
#
# Disc length: 2738 seconds
#
# Revision: 4
# Processed by: cddbd v1.5.2PL0 Copyright (c) Steve Scherf et al.
# Submitted via: audiograbber 1.83.01
#
DISCID=930ab00c
DTITLE=Various Artist - American Folk Blues Festival '62
DYEAR=1990
DGENRE=Blues - Folk
TTITLE0=Memphis Slim - T-Bone,Walker - Willi Dixon - Jump Jackson - We're Gonna Ro
TTITLE0=ck
TTITLE1=T-Bone,Walker - Memphis Slim - Willi Dixon - Jump Jackson - I Wanna See My
TTITLE1=Baby
TTITLE2=T-Bone,Walker - Memphis Slim - Willi Dixon - Jump Jackson - I'm In Love
TTITLE3=Sonny Terry - Brownie McGhee - T-Bone,Walker - Willi Dixon - I'm Crazy 'Bo
TTITLE3=ut You Baby
TTITLE4=Memphis Slim - Willi Dixon - Jump Jackson - Stewball
TTITLE5=John Lee Hooker - T-Bone,Walker - Willi Dixon - Jump Jackson - Let's Make 
TTITLE5=It Baby
TTITLE6=John Lee Hooker - T-Bone,Walker - Willi Dixon - Jump Jackson - Shake It Ba
TTITLE6=by
TTITLE7=John Lee Hooker - T-Bone,Walker - Willi Dixon - Jump Jackson - The Right T
TTITLE7=ime
TTITLE8=Shakey Jake - Memphis Slim - T-Bone,Walker - Willi Dixon - Jump Jackson - H
TTITLE8=ey Baby
TTITLE9=Shakey Jake - Memphis Slim - T-Bone,Walker - Willi Dixon - Jump Jackson - L
TTITLE9=ove My Ba
TTITLE10=Browniw McGhee - Memphis Slim - Willi Dixon - Jump Jackson - Crying At Th
TTITLE10=e Station
TTITLE11=Memphis Slim - T-Bone,Walker - Willi Dixon - Jump Jackson - Bye Bye Baby
EXTD=
EXTT0=
EXTT1=
EXTT2=
EXTT3=
EXTT4=
EXTT5=
EXTT6=
EXTT7=
EXTT8=
EXTT9=
EXTT10=
EXTT11=
PLAYORDER=
